<?xml version="1.0" encoding="utf-8"?>
<!-- Generator: Adobe Illustrator 16.0.3, SVG Export Plug-In . SVG Version: 6.00 Build 0)  -->
<!DOCTYPE svg PUBLIC "-//W3C//DTD SVG 1.1//EN" "http://www.w3.org/Graphics/SVG/1.1/DTD/svg11.dtd">
<svg version="1.1" id="Capa_1" xmlns="http://www.w3.org/2000/svg" xmlns:xlink="http://www.w3.org/1999/xlink" x="0px" y="0px"
	 width="865px" height="560px" viewBox="0 0 865 560" enable-background="new 0 0 865 560" xml:space="preserve">
<g>
	<path fill-rule="evenodd" clip-rule="evenodd" fill="#FEFEFE" d="M382.973,323.252c-1.579-0.322-2.747-0.926-3.482-1.83
		c0.009-3.246,4.825-4.053,8.124-5.334c11.3-4.395,23.274-8.105,35.114-11.965c26.393-8.598,52.063-17.914,73.719-30.643
		c31.438-18.486,40.204-40.723,29.433-66.037c-3.495-8.206-8.769-15.959-17.564-22.706c-6.017-4.616-14.063-7.401-23.085-9.318
		c-0.72-0.152-1.462-0.266-2.213-0.339c-2.891-0.281-6.041-0.401-7.009,1.648c-1.034,2.188,2.07,3.013,4.787,3.378
		c10.321,1.378,17.748,5.194,23.591,10.183c9.321,7.953,12.879,17.196,15.563,26.591c7.265,25.48-10.697,44.636-42.555,59.895
		c-15.478,7.407-32.078,13.983-49.835,19.377c-2.482,0.754-4.871,1.668-7.768,1.795c-4.511-0.779-2.925-2.818-2.62-4.598
		c3.932-3.268,9.815-5.246,14.606-7.951c19.256-10.88,38.872-21.577,51.961-35.696c12.328-13.305,16.436-26.933,3.515-40.994
		c-7.611-8.286-17.891-14.448-34.961-14.733c-18.484-0.31-32.475,4.45-41.717,13.901c-8.751,8.949-12.958,18.923-15.38,29.107
		c-3.798,15.979-10.156,31.415-22.08,46.02c-17.01,20.838-42.783,36.988-72.889,50.924c-13.45,6.229-26.499,12.885-42.65,16.627
		c-2.803,0.646-5.625,1.613-8.623,0.273c-0.719-0.283-1.435-0.57-2.153-0.854c0.441-1.836,3.066-2.279,5.269-2.979
		c66.629-21.123,105.536-54.229,117.908-98.813c2.344-8.441,5.002-16.847,7.615-25.259c3.141-10.099,10.242-19.156,19.373-27.71
		c9.114-8.542,23.053-12.518,38.775-14.901c3.513-0.533,10.031-0.087,8.786-3.486c-1.235-3.385-7.084-1.911-11.11-1.464
		c-19.825,2.199-34.981,8.539-45.632,18.838c-7.391,7.146-13.291,14.735-18.634,22.49c-4.769-0.259-8.87-0.96-8.418-4.659
		c5.43-18.269,13.836-35.966,41.75-46.484c49.693-18.72,127.33-7.525,147.724,34.65c12.973,26.835,3.17,49.926-25.783,70.936
		c-24.516,17.788-55.652,30.176-89.492,40.43c-13.622,4.133-27.582,7.797-41.862,11.018
		C389.85,323.311,386.625,324.639,382.973,323.252z"/>
	<path fill-rule="evenodd" clip-rule="evenodd" fill="#EF6C33" d="M382.973,323.252c58.119-12.227,111.356-28.926,148.607-59.834
		c28.489-23.645,29.187-48.864,8.837-74.51c-19.315-24.337-67.167-35.983-113.311-28.649c-22.464,3.572-39.023,11.291-49.52,23.734
		c-7.36,8.726-12.85,17.834-15.109,27.578c-3.041,17.598-8.072,35.012-16.267,51.982c-12.575,26.045-36.014,47.922-72.107,64.532
		c-7.234,3.332-14.203,6.916-22.317,9.502c-4.686,1.494-9.351,3.072-14.949,2.844c-4.67,0.318-9.331,0.789-14.017,0.912
		c-3.525,0.092-5.738-1.271-6.06-3.359c-0.316-2.063,1.302-3.762,4.868-3.963c26.388-1.459,44.209-12.051,61.279-22.229
		c30.138-17.971,47.804-40.225,55.47-65.426c5.018-16.494,8.564-33.192,16.752-49.295c7.419-14.6,18.525-27.828,40.461-36.589
		c48.752-19.466,133.813-11.112,160.718,30.957c22.739,35.555,7.114,65.404-35.396,91.621c-6.191,3.816-12.951,7.299-19.444,10.938
		c-0.934,1.328-2.637,2.1-4.931,2.439c-1.575,0.492-3.515,0.68-4.339,1.82c-0.882,1.92-3.454,2.898-6.008,3.844
		c-9.496,3.518-17.972,8.115-29.006,10.012c-23.058,7.223-46.628,13.75-71.208,18.916c-1.669,0.348-3.305,0.766-4.995,1.072
		c-4.208,0.76-7.83,0.297-9.027-2.5c-1.036-2.422,0.933-4.242,5.103-4.678C379.403,324.678,381.054,323.865,382.973,323.252z"/>
	<path fill-rule="evenodd" clip-rule="evenodd" fill="#EF6C33" d="M692.259,256.418c-1.992-2.354-5.122-2.758-8.951-1.817
		c-1.17,0.288-2.253,0.706-3.414,1.016c-35.183,9.3-68.891,0.326-80.859-21.529c-0.558-1.012-1.089-2.035-1.56-3.063
		c-7.116-15.439-14.003-30.917-21.397-46.307c-6.472-13.465-17.201-25.275-36.012-34.243
		c-34.899-16.635-73.583-21.67-116.646-15.102c-23.746,3.624-45.941,8.759-62.065,20.699
		c-13.849,10.255-22.659,22.002-29.059,34.502c-9.057,17.703-13.654,36.012-19.898,54.093c-9.227,26.729-26.582,50.567-62.9,68.252
		c-8.912,4.342-18.469,7.518-29.601,8.873c-4.984,0.609-10.083,0.758-14.109-1.906c-2.829-1.869-6.385-2.107-9.389-0.316
		c-3.387,2.021-2.111,4.361,0.718,6.115c4.659,2.887,10.751,3.979,17.338,3.932c13.124-0.098,25.251-2.541,35.353-7.377
		c24.676-11.813,46.125-25.33,58.243-43.327c9.86-14.643,15.841-29.936,21.057-45.358c5.864-17.346,10.349-34.918,21.657-51.413
		c9.777-14.263,22.678-27.092,47.549-33.655c22.906-6.043,46.992-9.782,71.877-7.812c41.339,3.274,73.532,15.07,89.95,39.358
		c2.858,4.227,4.795,8.683,7.036,13.058c7.918,15.461,12.383,31.526,21.991,46.683c11.479,18.105,32.74,26.691,64.907,26.637
		c12.187-0.023,26.427-2.031,34.496-4.857C691.921,260.384,694.459,259.016,692.259,256.418z"/>
	<path fill-rule="evenodd" clip-rule="evenodd" fill="#EF6C33" d="M446.087,72.201c72.667,2.615,128.088,21.952,167.89,57.368
		c19.818,17.636,36.357,36.326,43.7,57.535c2.076,5.981,6.9,11.478,13.509,16.258c3.06,2.217,6.307,3.578,10.729,0.891
		c2.815-1.703,5.985-1.531,8.568,0.325c2.787,2,2.11,3.874-0.817,5.672c-7.115,4.366-17.194,4.488-25.105-0.169
		c-12.051-7.094-16.785-16.43-21.573-25.849c-21.237-41.778-57.807-76.424-126.819-94.928
		c-67.793-18.177-146.478-8.183-202.794,24.83c-18.561,10.884-31.426,23.904-41.183,38.123
		c-16.049,23.396-33.548,46.497-42.721,71.38c-1.756,4.762-2.992,9.61-3.973,14.457c-2.625,13-11.296,24.63-21.833,35.864
		c-2.07,2.209-4.862,3.702-9.257,2.319c-3.814-1.199-4.736-3.193-2.413-5.391c14.389-13.588,19.831-28.767,23.902-44.471
		c5.705-22.024,21.093-42.307,34.721-62.847c4.701-7.082,9.296-14.224,14.925-21.045C302.831,97.326,365.201,75.623,446.087,72.201z
		"/>
	<path fill-rule="evenodd" clip-rule="evenodd" fill="#EF6C33" d="M686.161,240.645c-2.851-2.482-6.204-1.918-9.852-0.479
		c-17.818,7.024-28.778,5.991-42.307-4.118c-11.397-8.522-17.355-18.533-21.269-29.068c-7.528-20.261-19.704-39.348-38.174-57.006
		c-17.52-16.746-41.395-27.873-73.782-31.966c-8.918-1.126-17.922-2.222-26.977-2.724c-61.125-3.384-113.09,8.156-146.928,43.482
		c-17.47,18.239-26.214,38.297-32.739,58.757c-6.563,20.579-14.773,40.862-28.901,60.105c-7.242,9.867-17.972,18.058-33.646,23.601
		c-7.659,2.711-15.724,4.35-24.604,2.229c-4.083-0.979-7.659-0.965-9.38,1.844c-1.896,3.098,1.505,4.426,5.641,5.379
		c11.024,2.559,21.575,1.346,31.563-1.797c19.968-6.295,33.256-16.348,42.249-28.519c11.169-15.111,18.853-30.919,24.595-47.071
		c6.463-18.19,11.333-36.618,22.862-54.042c14.435-21.817,35.56-40.131,72.333-50.232c30.141-8.277,61.597-7.852,93.368-4.697
		c33.688,3.347,58.668,14.04,75.907,31.83c14.943,15.427,26.298,31.631,32.795,49.051c4.991,13.376,11.974,26.223,27.054,36.895
		c8.331,5.896,18.321,10.071,30.458,10.434c11.387-0.135,19.886-2.636,27.601-6.368
		C687.206,244.625,688.713,242.864,686.161,240.645z"/>
	<path fill-rule="evenodd" clip-rule="evenodd" fill="#EF6C33" d="M684.828,222c-2.429-1.972-5.52-1.649-8.788-0.562
		c-11.65,3.869-16.287,3.366-24.395-2.95c-7.368-5.742-11.89-12.391-15.926-19.165c-5.909-9.909-8.42-20.425-15.291-30.18
		c-9.353-13.278-21.038-25.688-35.338-37.276c-40.601-32.894-96.913-40.975-160.352-35.751
		c-57.346,4.724-98.328,24.452-126.346,54.391c-23.373,24.979-37.076,52.04-47.223,79.899c-5.536,15.197-11.809,30.34-23.899,44.28
		c-6.319,7.282-14.98,12.715-30.141,12.374c-3.569-0.076-5.817,1.301-6.144,3.326c-0.378,2.324,2.017,3.854,5.688,4.094
		c3.22,0.207,6.621,0.045,9.816-0.334c17.438-2.09,27.198-9.49,34.247-18.518c8.995-11.511,14.901-23.672,19.785-36.008
		c9.397-23.751,18.315-47.571,35.647-69.868c13.452-17.298,29.205-33.585,54.138-45.924c38.565-19.086,83.295-23.992,131.6-20.435
		c38.611,2.844,69.396,13.796,92.417,32.609c5.863,4.789,11.35,9.757,16.651,14.779c15.295,14.476,23.647,30.585,30.881,47.026
		c4.219,9.602,10.529,18.823,21.442,26.561c5.948,4.218,13.038,7.261,24.652,7.335c4.813,0.088,10.287-1.76,15.41-4.125
		C686.748,226.016,687.344,224.042,684.828,222z"/>
	<path fill-rule="evenodd" clip-rule="evenodd" fill="#EF6C33" d="M194.551,224.524c4.818-30.21,15.037-60.16,34.49-88.825
		c11.885-17.513,33.022-30.627,56.373-42.62c28.24-14.502,58.465-27.649,95.604-31.667c86.099-9.313,164.951-0.206,229.449,37.917
		c28.936,17.108,45.535,39.132,60.326,61.527c7.42,11.238,13.756,22.67,13.862,34.975c0.016,1.5,0.512,3.111-1.412,4.376
		c-1.927,1.27-4.401,1.46-6.986,0.953c-3.573-0.698-3.908-2.484-4.117-4.415c-3.857-35.404-49.145-85.162-96.248-105.707
		c-36.045-15.725-77.193-22.494-120.842-24.906c-31.745-1.755-63.31-1.165-92.817,6.638
		c-48.711,12.881-89.978,31.785-116.506,60.027c-17.078,18.184-23.973,38.819-30.773,59.204
		c-4.203,12.589-7.512,25.275-7.781,38.165c-0.056,2.707-1.778,4.606-6.45,4.6c-4.778-0.005-6.387-1.996-6.193-4.678
		C194.65,228.411,194.551,226.725,194.551,224.524z"/>
	<path fill-rule="evenodd" clip-rule="evenodd" fill="#EF6C33" d="M248.956,350.828c6.703-0.441,12.899-2.031,18.332-4.168
		c32.213-12.668,62.528-26.754,85.457-45.666c23.217-19.158,35.919-40.792,40.523-64.308c1.998-10.2,6.813-20.058,15.353-29.042
		c13.172-13.862,41.891-19.524,61.837-11.82c16.092,6.215,24.368,15.733,26.303,27.115c1.671,9.792-3.354,18.712-11.246,27.091
		c-15.421,16.361-37.819,28.948-61.543,40.796c-2.117,1.059-4.237,2.119-6.35,3.178c-5.798,4.07-13.104,6.645-21.711,7.928
		c-20.285,5.986-41.483,11.063-57.736,21.057c-2.229,4.316-9.012,6.096-14.037,8.732c-17.563,9.232-35.591,18.141-56.617,24.502
		c-5.918,1.787-12.1,3.125-18.594,3.934c-6.364,0.99-12.796,1.197-19.293,0.643c-2.533-0.459-5.172-0.676-7.727-1.09
		c-3.585-1.348-5.002-3.936-8.438-5.373c-1.141-1.949-0.653-3.568,2.422-4.771c2.547-0.992,4.902-0.605,7.07,0.328
		C231.323,353.494,240.066,352.771,248.956,350.828z"/>
	<path fill-rule="evenodd" clip-rule="evenodd" fill="#EF6C33" d="M667.435,118.039c-0.327,2.238-1.596,3.658-4.759,4.089
		c-3.822,0.525-6.145-0.592-7.852-2.622c-5.864-6.99-13.938-13.055-21.841-19.242c-26.913-21.068-62.063-34.666-103.631-42.95
		c-40.862-8.143-82.468-13.198-125.627-10.941c-53.358,2.79-95.938,18.247-130.963,41.992c-7.091,4.805-13.481,9.945-19.338,15.311
		c-2.458,2.249-5.363,4.118-9.864,2.451c-4.918-1.82-3.324-4.315-0.612-6.706c35.207-31.04,81.255-52.699,143.99-59.376
		c35.254-3.754,70.363-1.701,105.008,3.122c37.207,5.182,73.473,12.049,104.953,25.623c27.828,11.996,49.467,27.509,67.243,45.023
		C665.574,115.225,666.501,116.825,667.435,118.039z"/>
	<path fill-rule="evenodd" clip-rule="evenodd" fill="#EF6C33" d="M634.21,375.271c1.238,0.143,2.501,0.248,3.721,0.447
		c4.028,0.654,6.197,2.201,5.178,4.734c-0.949,2.326-3.981,3.01-7.677,2.652c-27.562-2.656-52.117-8.566-70.119-22.311
		c-19.121-14.59-31.968-30.566-34.888-49.359c-1.761-11.324-7.211-12.328-22.283-5.32c-21.505,9.996-45.547,17.719-67.552,27.285
		c-35.146,15.285-67.068,32.629-94.951,52.635c-13.206,9.479-21.263,20.719-30.081,31.701c-0.55,0.688-1.013,1.398-1.462,2.109
		c-1.651,2.611-4.456,4.361-9.245,3.059c-4.37-1.189-4.214-3.549-2.408-5.877c10.798-13.973,21.411-27.936,38.733-39.678
		c28.443-19.291,59.953-36.449,94.942-51.313c2.046-0.867,3.953-1.848,5.922-2.775c5.218-3.283,11.388-5.705,18.389-7.381
		l-0.06,0.023c4.238-3.193,10.187-5.006,15.826-7.029c8.495-3.049,16.104-6.928,24.964-9.629c1.076-0.385,2.153-0.768,3.231-1.15
		c0.644-0.898,1.956-1.252,3.382-1.518c15.559-5.355,29.141-2.063,33.431,8.488c2.585,6.359,3.179,13.021,5.981,19.332
		c7.214,16.238,22.149,29.725,43.229,40.619c7.921,4.09,17.607,6.576,27.992,7.822c1.789,0.426,3.696-0.332,5.481,0.191
		C627.119,374.119,631.09,373.992,634.21,375.271z"/>
	<path fill-rule="evenodd" clip-rule="evenodd" fill="#EF6C33" d="M618.858,390.502c-0.15,2.807-4.72,4.617-9.287,3.295
		c-21.282-6.188-42.308-12.613-57.688-23.986c-14.939-11.043-28.768-22.424-36.652-36.117c-5.135-8.922-8.325-9.52-23.264-6.318
		c-7.699,1.65-14.971,3.846-21.426,6.814c-44.391,20.441-83.369,43.73-107.814,74.645c-4.375,5.537-7.229,11.387-10.945,17.055
		c-1.757,2.674-3.197,5.525-7.24,7.393c-2.422,1.121-5.166,1.467-7.699,0.236c-2.31-1.117-3.735-2.703-2.062-4.43
		c9.575-9.918,14.04-21.152,23.091-31.277c21.605-24.152,52.234-43.387,86.7-60.809c13.861-7.008,27.86-13.73,45.267-17.305
		c19.256-3.951,28.774-1.818,35.934,9.666c6.779,10.881,16.842,20.418,27.917,29.754c14.787,12.473,34.874,20.643,57.72,26.773
		C617.64,387.564,618.955,388.691,618.858,390.502z"/>
	<path fill-rule="evenodd" clip-rule="evenodd" fill="#EF6C33" d="M572.374,258.148c5.073-4.057,8.216-3.957,12.408,0.31
		c2.973,3.029,5.507,6.197,7.793,9.437c1.393,1.689,2.921,3.289,6.332,3.729c3.452-0.563,4.902,1.293,7.034,2.209
		c24.547,10.566,50.692,11.216,78.024,4.641c3.457-0.832,5.452-2.331,4.14-4.667c-1.341-2.397-4.002-3.356-8.306-2.472
		c-4.796,0.984-9.66,1.872-14.553,2.653c-27.068,4.352-53.121-2.632-65.833-17.553c-1.612-1.895-3.335-3.79-5.394-5.518
		c-7.7-6.466-18.114-7.101-27.907-1.693c-8.519,4.706-13.18,10.76-16.102,17.361c-19.749,44.571,25.819,87.452,70.228,105.313
		c1.023,1.049,2.937,1.199,4.565,1.635c3.002,0.758,5.942,1.709,9.388,1.131c6.1-0.283,7.135-2.617,6.371-5.686
		c0.117-1.488-1.427-2.289-3.47-2.654c-14.033-2.514-23.758-8.484-33.147-14.781c-31.694-21.252-48.369-45.613-42.552-74.591
		C562.745,270.233,565.43,263.696,572.374,258.148z"/>
	<path fill-rule="evenodd" clip-rule="evenodd" fill="#EF6C33" d="M368.602,216.658c0.097-3.999,3.834-7.228,6.465-10.645
		c9.513-12.361,20.486-23.984,43.347-29.229c6.672-1.531,13.434-2.726,20.544-3.192c4.549-0.296,8.498,0.282,8.925,3.44
		c0.391,2.875-2.99,3.764-7.328,4.101c-21.377,1.659-36.557,8.312-47.295,19.734c-12.51,13.295-16.375,27.876-19.706,42.493
		c-8.896,39.074-38.8,70.562-91.338,94.193c-11.007,4.949-23.15,8.754-35.413,12.422c-8.564,0.828-10.679-0.498-9.169-5.766
		c1.678-2.129,5.246-2.787,8.319-3.783c62.59-20.197,100.305-51.15,111.69-93.505c2.352-8.755,4.698-17.51,7.825-26.18
		C365.997,219.268,366.494,217.721,368.602,216.658z"/>
	<path fill-rule="evenodd" clip-rule="evenodd" fill="#EF6C33" d="M490.874,344.816c11.244-0.119,18.298,2.621,24.197,6.709
		c6.054,4.197,10.147,9.115,14.063,14.078c10.853,13.764,28.028,23.84,50.16,30.902c8.19,2.615,16.509,5.5,26.62,3.09
		c2.873-0.684,5.444,0.684,6.563,2.357c1.286,1.916,0.485,3.625-2.73,4.68c-4.888,1.6-10.107,2.018-15.475,1.242
		c-25.227-3.652-44.557-12.738-61.098-24.293c-4.807-3.357-8.623-7.164-12.089-11.078c-2.385-2.693-4.777-5.383-7.146-8.076
		c-12.567-14.301-26.745-16.15-46.836-5.186c-18.67,10.199-34.389,22.172-47.626,35.004c-15.474,14.994-31.605,29.844-43.455,46.107
		c-1.741,2.393-4.435,3.973-8.856,2.814c-4.307-1.129-4.648-3.424-2.808-5.789c2.903-3.725,5.646-7.516,9.042-11.08
		c21.798-22.904,43.031-46.033,73.178-65.588c10.33-6.701,21.188-12.746,36.39-15.059
		C486.144,345.168,489.438,344.967,490.874,344.816z"/>
	<path fill-rule="evenodd" clip-rule="evenodd" fill="#EF6C33" d="M419.635,297.563c18.106-5.668,35.167-12.352,51.747-19.478
		c24.448-10.502,42.652-23.88,47.074-42.172c3.747-15.483-1.124-30.448-14.726-44.051c-5.432-5.43-13.022-9.36-23.69-10.651
		c-4.431-0.537-8.217-1.595-6.942-4.756c1.375-3.415,5.886-3.152,10.446-2.508c15.437,2.178,26.31,7.974,33.182,16.216
		c28.386,34.053,18.755,68.042-33.76,92.154c-23.42,10.752-48.576,19.936-74.971,27.881c-10.178,3.066-20.112,6.463-28.504,11.225
		c-2.537,1.221-5.057,2.453-7.616,3.656c-3.127,1.465-6.21,1.242-8.759-0.445c-2.643-1.742-2.34-3.564,0.509-5.221
		c11.022-6.396,23.077-11.902,37.118-15.717C405.908,300.383,412.647,298.836,419.635,297.563z"/>
	<path fill-rule="evenodd" clip-rule="evenodd" fill="#EF6C33" d="M684.364,289.51c3.273-1.625,4.957-3.598,2.045-5.898
		c-2.176,2.324-3.681,4.871-5.671,7.5C681.978,290.625,683.188,290.098,684.364,289.51z"/>
	<path fill-rule="evenodd" clip-rule="evenodd" fill="#EF6C33" d="M676.644,283.479c-3.383,1.975-7.664,2.955-12.025,3.775
		c-26.763,5.012-48.063-0.07-65.711-15.63c-1.502-1.195-3.005-2.384-4.506-3.579c-12.463-7.232-23.174-6.101-30.076,3.525
		c-5.591,7.792-6.411,16.155-2.898,24.243c12.856,29.609,35.28,55.521,80.238,72.289c3.196,1.748,6.63,3.098,10.416,0.697
		c4.055-2.57,1.462-4.836-1.772-6.693c-2.68-1.541-5.927-2.732-8.935-4.068c-16.494-7.338-29.899-16.309-39.589-27.229
		c-0.333-1.617-1.567-3.02-2.853-4.41c-0.634-0.697-1.346-1.367-2.103-2.018c-1.694-1.461-2.939-3.029-3.184-4.832
		c-0.318-0.768-0.875-1.469-1.641-2.113c-1.617-0.924-2.599-2.061-3.063-3.361c-0.288-0.348-0.645-0.664-1.095-0.945
		c-2.338-1.051-2.329-2.762-3.288-4.203c-1.593-2.111-2.968-4.266-3.638-6.564c-0.489-1.33-1.361-2.598-1.899-3.916
		c-2.827-6.994-4.067-14.016-0.61-21.058c1.227-2.505,3.405-3.38,6.757-1.007c4.396,3.117,9.875,5.627,13.843,8.977
		c1.309,0.994,2.724,1.9,4.862,2.266c3.29-0.383,3.563,1.689,5.491,2.406c4.264,2.014,7.633,5.006,14.062,4.658
		c9.61,1.391,19.222,2.619,29.233,1.752c9.932-0.863,19.654-2.021,28.078-5.328c1.99-2.629,3.495-5.176,5.671-7.5
		c-0.015-0.012-0.021-0.023-0.036-0.035C683.374,281.244,679.952,281.549,676.644,283.479z"/>
	<path fill-rule="evenodd" clip-rule="evenodd" fill="#EF6C33" d="M424.286,19.554c58.789,0.829,115.594,8.261,166.387,28.413
		c6.758,2.68,12.93,5.897,19.304,8.921c3.686,1.747,5.209,3.934,1.617,6.246c-3.423,2.205-6.804,1.081-9.972-0.564
		C561.056,41.482,512.4,32.363,460.445,28.648c-38.861-2.777-77.534-1.705-115.567,4.416c-7.616,1.224-15.043,2.747-22.121,4.83
		c-3.927,1.157-7.669,1.36-9.827-1.2c-2.389-2.832,0.474-4.501,4.671-5.702c19.024-5.439,39.41-7.81,60.029-9.565
		C392.725,20.142,407.949,19.72,424.286,19.554z"/>
	<path fill-rule="evenodd" clip-rule="evenodd" fill="#EF6C33" d="M275.735,381.088c-9.863,3.033-20.417,4.201-31.391,4.188
		c-4.531-0.002-8.39-0.84-8.218-4.047c0.155-2.918,3.767-3.74,8.04-3.627c14.634,0.379,27.039-2.959,38.923-7.799
		c21.428-8.723,43.705-16.691,63.115-27.129c6.04-3.25,13.411-4.854,21.654-4.85c4.604,0,8.599,0.607,10.673,3.395
		c1.927,2.6-0.655,4.48-3.24,6.127c-12.023,7.67-24.237,15.219-35.661,23.236c-17.613,12.371-32.563,25.736-44.037,40.5
		c-0.751,0.969-1.66,1.887-2.445,2.846c-1.616,1.965-4.354,2.539-7.628,1.99c-3.123-0.518-4.289-1.99-4.098-3.877
		c0.103-1.012,0.243-2.018,0.367-3.027c-0.238-0.395-0.148-0.764,0.216-1.113c1.458-1.059,2.474-2.262,3.117-3.586
		c1.718-2.871,4.827-5.295,7.146-7.975c0.755-0.871,1.36-1.781,1.918-2.705c0.238-0.369,0.558-0.711,0.935-1.027
		c1.625-0.971,2.881-2.072,3.507-3.418c4.456-5.055,10.543-9.43,16.089-14.031c9.239-6.02,16.897-12.832,26.439-18.67
		c-11.341,5.205-23.083,9.998-34.845,14.773c-1.31,0.617-2.356,1.459-4.037,1.771c-2.817,0.166-4.661,1.404-6.844,2.275
		C288.984,377.383,283.806,381.027,275.735,381.088z"/>
	<path fill-rule="evenodd" clip-rule="evenodd" fill="#EF6C33" d="M484.228,373.479c11.902,0.146,21.36,3.354,29.251,8.504
		c5.021,3.281,9.129,6.98,12.358,10.955c6.96,8.566,18.451,14.438,31.193,19.6c5.087,2.059,10.363,3.758,17.01,2.973
		c3.898-0.461,6.266,0.924,6.764,3.266c0.52,2.443-1.849,3.738-5.464,4.191c-7.031,0.883-13.755,0.025-19.771-2.156
		c-15.559-5.641-29.843-12.135-38.721-22.072c-3.355-3.758-6.763-7.531-11.385-10.809c-11.062-7.854-24.081-9.037-38.422-3.408
		c-11.474,4.506-19.96,10.791-27.592,17.504c-14.227,12.508-25.007,26.143-35.561,39.848c-0.956,1.242-1.845,2.527-3.097,3.656
		c-1.593,1.438-4.135,1.813-6.743,1.271c-2.944-0.607-4.443-1.979-4.116-3.908c0.101-0.598,0.313-1.221,0.727-1.76
		c14.066-18.451,28.151-36.91,50.087-52.635c8.078-5.797,17.488-10.6,29.371-13.441
		C474.678,373.967,479.345,373.453,484.228,373.479z"/>
	<path fill-rule="evenodd" clip-rule="evenodd" fill="#EF6C33" d="M676.366,299.096c-1.868,0.465-3.723,0.953-5.619,1.369
		c-14.359,3.174-37.998,0.279-47.32-5.777c-5.113-1.357-9.294-3.547-13.714-5.521c-1.938-0.27-2.83-1.516-4.723-1.834
		c-1.59-0.637-3.177-1.273-4.763-1.908c-1.967-2.189-5.287-2.117-8.627-1.779c-8.618,0.871-14.643,5.928-13.675,11.506
		c0.316,1.818,1.118,3.594,1.64,5.402c1.535,2.643,2.078,5.471,4.301,7.975c1.25,1.861,1.437,4.031,4.386,5.387l0.018-0.027
		c0.816,1.479,1.648,2.947,3.152,4.236c0.209,0.426,0.412,0.852,0.617,1.279c2.145,1.309,2.19,3.293,4.186,4.652
		c0.855,0.605,1.534,1.281,2.147,1.982c1.62,1.207,2.409,2.846,5.051,3.521c12.813,10.842,26.714,20.951,46.673,27.488
		c4.04,1.326,6.668,1.006,9.247-0.551c2.794-1.682,2.27-3.641-0.647-5.203c-2.265-1.215-4.552-2.496-7.177-3.363
		c-11.37-3.773-19.952-9.338-27.777-15.385c-13.28-10.27-25.668-20.852-30.386-33.9c-0.729-2.018-2.512-4.844,0.433-5.979
		c2.732-1.051,5.626,1.42,7.939,2.693c12.863,7.059,27.772,11.631,44.858,13.59c12.088,1.391,23.693,0.5,34.685-2.939
		c3.322-1.041,5.233-2.6,3.754-4.814C683.472,298.867,680.404,298.076,676.366,299.096z"/>
	<path fill-rule="evenodd" clip-rule="evenodd" fill="#EF6C33" d="M489.662,398.438c7.172,0.256,13.364,2.758,18.686,6.221
		c5.508,3.586,10.769,7.326,16.498,10.783c7.729,4.656,16.031,8.898,26.412,11.387c3.817,0.914,5.578,2.621,3.977,5.104
		c-1.682,2.607-5.024,2.746-8.763,1.881c-12.871-2.982-22.927-8.354-32.423-14.117c-5.531-3.363-10.462-7.084-15.938-10.482
		c-6.729-4.178-10.227-4.018-17.331-0.295c-12.531,6.553-21.203,14.67-28.085,23.646c-3.929,5.115-8.388,10.088-12.708,15.096
		c-2.008,2.328-5.085,3.547-9.322,2.104c-4.247-1.445-3.791-3.498-1.734-5.865c5.985-6.889,11.829-13.826,17.54-20.803
		c6.974-8.521,17.209-15.426,29.061-21.543C479.293,399.607,483.632,398.441,489.662,398.438z"/>
	<path fill-rule="evenodd" clip-rule="evenodd" fill="#EF6C33" d="M213.468,354.336c5.005,0.016,6.965,1.832,7.392,4.545
		c2.296,0.869,5.205,0.473,7.511,1.318c8.556,0.865,16.967,0.242,25.331-0.867c26.445-3.744,48.108-12.143,66.114-24.275
		c6.327-4.26,12.698-8.766,23.383-9.102c3.438,0.602,7.052,1.17,7.224,3.873c0.172,2.658-3.255,3.479-6.569,4.393
		c-6.417,1.77-10.522,5.15-15.256,8.105c-22.378,13.967-48.378,23.955-81.149,26.244c-13.622,0.957-26.904,0.568-37.91-5.332
		c-2.445-1.313-5.041-2.777-4.785-4.955C205.13,355.115,209.897,355.139,213.468,354.336z"/>
	<path fill-rule="evenodd" clip-rule="evenodd" fill="#FCFCFC" d="M368.602,216.658c-6.06,17.307-7.852,35.207-17.399,51.992
		c-18.854,33.149-54.456,57.836-106.781,73.551c-2.258,0.674-4.525,1.336-6.789,2.008c-0.327-0.91-2.174-1.66,0.301-2.715
		c3.226-1.373-0.734-0.68-1.095-1.064c59.187-17.186,94.263-45.941,110.443-83.667c6.081-14.188,8.933-28.772,13.93-43.096
		c0.253-0.719,0.839-1.397,1.266-2.094C361.332,214.658,365.997,215.208,368.602,216.658z"/>
	<path fill-rule="evenodd" clip-rule="evenodd" fill="#EF6C33" d="M654.297,324.311c5.854,1.506,9.878,2.637,14.023,3.574
		c4.078,0.928,6.761,2.398,5.275,5.143c-1.665,3.072-5.597,3.133-9.848,2.041c-4.762-1.217-9.464-2.518-15.996-4.26
		c5.337,3.818,10.367,5.98,15.696,7.889c3.827,1.369,5.834,3.197,3.457,5.643c-2.413,2.479-6.205,2.275-9.893,0.893
		c-12.182-4.563-22.896-10.096-30.694-17.43c-1.73-1.631-2.947-3.57-3.654-5.465c-2.373-6.367,5.608-11.34,16.159-9.986
		c5.167,0.66,10.125,1.916,15.207,2.855c4.067,0.754,7.963,1.74,12.534,0.916c3.748-0.676,6.396,0.68,7.299,2.889
		c0.844,2.074-0.847,3.43-4.028,4.354C665.443,324.639,660.813,323.744,654.297,324.311z"/>
	<path fill-rule="evenodd" clip-rule="evenodd" fill="#FCFCFC" d="M594.401,268.044c-0.948-0.174-2.113-0.192-2.813-0.544
		c-10.601-5.322-20.93-3.944-26.413,5.638c-4.896,8.559-4.647,17.231-0.782,25.752c10.733,23.629,30.377,44.146,60.334,60.959
		c5.351,3.002,12.754,4.428,16.938,8.252c-0.367,0.293-0.732,0.584-1.102,0.877c-9.04-2.908-18.853-4.855-26.591-9.309
		c-21.426-12.324-38.162-26.482-47.91-43.387c-9.19-15.939-11.053-32.18-3.513-48.592c2.105-4.592,5.543-8.806,11.086-12.349
		c4.155-2.654,7.815-2.697,10.84,0.52C588.184,259.794,592.302,263.625,594.401,268.044z"/>
	<path fill-rule="evenodd" clip-rule="evenodd" fill="#EF6C33" d="M315.373,375.494c-2.793,3.834-7.532,6.879-11.394,10.281
		c-1.476,1.301-3.782,2.443-3.767,4.258c-2.13,0.828-3.538,2.014-4.67,3.344l0.145,0.125c-1.037,0.799-1.998,1.623-2.746,2.531
		c-2.816,2.908-5.889,5.732-7.595,8.975c-0.662,1.494-1.938,2.789-3.564,3.969l0.009,0.037c-8.296,1.279-11.952-0.646-9.991-5.305
		c1.87-4.451,5.795-8.371,9.288-12.297c-2.06-1.469-3.549-0.293-4.881,0.078c-3.671,1.033-7.229,2.17-11.312,2.572
		c-4.578,0.443-9.268,0.51-10.385-2.816c-1.119-3.326,2.648-4.453,7.727-4.711c5.203-0.266,9.317-2.184,13.5-3.883
		c6.256-3.137,14.229-4.635,20.486-7.775c2.078-0.754,3.541-2.152,6.299-2.189c0.532-0.615,1.063-1.23,1.598-1.846
		C313.191,369.67,316.025,370.842,315.373,375.494z"/>
	<path fill-rule="evenodd" clip-rule="evenodd" fill="#EF6C33" d="M468.043,441.543c-3.13,2.352-6.116,4.783-9.433,7.043
		c-2.452,1.666-5.718,2.133-8.764,0.631c-2.98-1.475-3.085-3.402-0.866-5.285c7.012-5.967,14.156-11.838,23.834-16.443
		c8.718-4.148,17.933-4.789,27.554-1.746c7.574,2.391,14.755,5.24,22.045,7.955c3.265,1.217,4.327,2.965,2.23,5.066
		c-2.249,2.24-5.429,2.508-9.098,1.313c-2.2-0.709-4.355-1.469-6.53-2.203c-4.078-0.098-6.761-1.873-9.968-3.012
		c-9.055-3.203-13.208-2.934-20.717,1.451C475.104,438.199,472.23,440.338,468.043,441.543z"/>
	<path fill-rule="evenodd" clip-rule="evenodd" fill="#F9F9F9" d="M343.199,325.955c-9.637,2.318-16.788,6.488-23.658,11.029
		c-15.782,10.428-34.764,17.984-57.311,22.113c-2.388,0.438-4.924,0.58-7.392,0.859c-1.868,0.084-4.307,1.229-4.957-0.963
		c29.181-4.691,50.292-17.041,72.938-27.914c5.313-2.551,10.248-5.389,15.354-8.092
		C339.278,324.328,340.058,325.867,343.199,325.955z"/>
	<path fill-rule="evenodd" clip-rule="evenodd" fill="#EF6C33" d="M507.36,438.785c1.471,1.818,2.925,3.666,0.104,5.492
		c-2.982,1.928-6.785,1.588-9.781,0.463c-5.311-1.994-9.457-1.162-13.581,1.09c-0.742,0.404-1.628,0.727-2.505,1.029
		c-3.127,1.084-6.445,2.217-9.964,0.891c-4.052-1.523-2.539-4.029-2.329-6.256c4.568-2.424,9.398-4.846,15.093-5.961
		C492.79,433.881,500.841,434.801,507.36,438.785z"/>
	<path fill-rule="evenodd" clip-rule="evenodd" fill="#F9F9F9" d="M501.16,299.246c-12.093,6.885-26.809,11.443-40.79,16.658
		c0.118-1.625,1.885-3.75-3.185-3.793c11.668-4.619,23.342-9.234,35.014-13.855C494.126,302.074,498.544,297.699,501.16,299.246z"/>
	<path fill-rule="evenodd" clip-rule="evenodd" fill="#F4F4F4" d="M507.36,438.785c-2.573-0.592-5.222-1.076-7.692-1.785
		c-7.088-2.031-13.576-1.512-19.787,1.313c-3.172,1.441-6.236,3.107-10.576,3.182l-0.631,0.053l-0.631-0.004
		c1.017-0.816,1.913-1.695,3.067-2.432c15.618-9.977,19.961-10.109,37.905-1.238C508.46,438.178,507.909,438.484,507.36,438.785z"/>
	<path fill-rule="evenodd" clip-rule="evenodd" fill="#F9F9F9" d="M419.635,297.563c-5.915,2.473-12.366,4.342-18.892,6.133
		c-1.612-0.59-3.223-1.176-4.833-1.764c7.235-2.641,14.473-5.287,21.711-7.928C420.005,294.842,417.015,296.779,419.635,297.563z"/>
	<path fill-rule="evenodd" clip-rule="evenodd" fill="#E3E3E3" d="M297.076,375.297c-5.911,3.715-13.628,5.535-21.34,7.355
		c0-0.518-0.001-1.041-0.001-1.564c6.448-2.24,12.899-4.48,19.347-6.721C296.844,373.822,296.994,374.531,297.076,375.297z"/>
	<path fill-rule="evenodd" clip-rule="evenodd" fill="#F9F9F9" d="M460.43,315.881c-5.72,2.83-11.929,5.219-18.389,7.381
		c-0.167-0.279-0.607-0.627-0.464-0.83C443.53,319.688,455.429,315.58,460.43,315.881z"/>
	<path fill-rule="evenodd" clip-rule="evenodd" fill="#9B9B9B" d="M624.739,372.91c3.15,0.584,6.301,1.172,9.453,1.754
		c0.118,0.201,0.125,0.4,0.018,0.607c-3.98,0.188-7.938,0.316-11.191-1.477C623.116,373.162,624.055,373.127,624.739,372.91z"/>
	<path fill-rule="evenodd" clip-rule="evenodd" fill="#F7F7F7" d="M599.188,325.615c1.936,1.111,3.873,2.217,4.234,3.943
		c-0.545,0.412-1.093,0.832-1.638,1.25c-2.101-1.082-3.3-2.488-4.134-4.035C598.047,326.334,598.153,325.75,599.188,325.615z"/>
	<path fill-rule="evenodd" clip-rule="evenodd" fill="#F9F9F9" d="M496.538,296.436c1.644-0.814,3.289-1.631,4.931-2.439
		C502.383,296.674,500.586,297.377,496.538,296.436z"/>
	<path fill-rule="evenodd" clip-rule="evenodd" fill="#F9F9F9" d="M507.773,296.578c-1.128,0.508-2.253,1.01-3.382,1.518
		c-0.52-0.631-1.42-1.426,0.099-1.813C505.354,296.061,506.664,296.457,507.773,296.578z"/>
	<path fill-rule="evenodd" clip-rule="evenodd" fill="#CFCFCF" d="M624.739,372.91c-0.574,0.295-1.148,0.586-1.721,0.885
		c-1.636-0.15-3.438-0.006-4.612-0.955c0.608-0.314,1.221-0.627,1.833-0.941C621.736,372.234,623.237,372.574,624.739,372.91z"/>
	<path fill-rule="evenodd" clip-rule="evenodd" fill="#FEFEFE" d="M368.744,300.682c13.788-13.531,25.277-27.711,31.063-43.282
		c2.986-8.027,4.457-16.252,7.112-24.327c2.517-7.646,6.308-15.098,12.922-21.88c14.113-14.469,42.463-14.753,56.901-0.576
		c8.945,8.781,9.986,17.972,3.979,27.618c-7.679,12.323-21.6,21.951-36.343,31.266c-20.866,13.181-44.798,23.763-72.588,31.087
		C370.883,300.828,370.047,301.234,368.744,300.682z"/>
	<path fill-rule="evenodd" clip-rule="evenodd" fill="#DBDBDB" d="M249.882,358.994c1.229,1.107,3.341,0.576,4.957,0.963
		c-9.159,1.705-18.415,1.758-27.739,0.572c-0.163-0.885,0.376-1.221,1.824-0.852C235.962,360.023,242.926,359.557,249.882,358.994z"
		/>
	<path fill-rule="evenodd" clip-rule="evenodd" fill="#BBBBBB" d="M228.923,359.678c-0.609,0.285-1.215,0.568-1.824,0.852
		c-2.04-0.604-5.054,0.129-6.239-1.648C223.624,358.869,226.497,358.453,228.923,359.678z"/>
	<path fill-rule="evenodd" clip-rule="evenodd" fill="#FBFBFB" d="M600.228,285.424c-12.776-2.129-21.23,2.045-20.227,10.018
		c0.228,1.811,0.63,3.609,0.951,5.412c0.303,0.916,1.316,2.033-1.599,2.033c-5.038-8.965-7.5-17.969-2.236-27.286
		c1.824-3.233,3.964-4.285,7.895-1.278C589.947,278.093,596.784,280.918,600.228,285.424z"/>
	<path fill-rule="evenodd" clip-rule="evenodd" fill="#C8C8C8" d="M579.354,302.887c0.534-0.678,1.066-1.357,1.599-2.033
		c1.339,2.549,2.679,5.102,4.023,7.652c-0.431,0.385-0.51,0.938-1.466,1.047C581.13,307.555,580.048,305.264,579.354,302.887z"/>
	<path fill-rule="evenodd" clip-rule="evenodd" fill="#FDFDFD" d="M583.51,309.553c0.484-0.35,0.975-0.699,1.466-1.047
		c1.09,1.807,2.183,3.605,3.281,5.408C583.52,313.705,583.795,311.516,583.51,309.553z"/>
	<path fill-rule="evenodd" clip-rule="evenodd" fill="#D1D1D1" d="M592.039,319.402c3.245,0.924,4.167,2.857,5.515,4.605
		c-0.181,0.557-0.747,0.883-1.662,0.996C593.445,323.428,591.507,321.719,592.039,319.402z"/>
	<path fill-rule="evenodd" clip-rule="evenodd" fill="#C0C0C0" d="M588.27,313.887c2.156,1.115,2.8,2.637,3.152,4.236
		C587.334,317.531,586.696,316.01,588.27,313.887z"/>
	<path fill-rule="evenodd" clip-rule="evenodd" fill="#131313" d="M609.713,289.166c-3.231,0.93-3.297-1.084-4.723-1.834
		C608.23,286.391,608.312,288.396,609.713,289.166z"/>
	<path fill-rule="evenodd" clip-rule="evenodd" fill="#FEFEFE" d="M595.892,325.004c0.555-0.33,1.108-0.666,1.662-0.996
		c0.546,0.535,1.091,1.07,1.635,1.607c-0.515,0.387-1.029,0.773-1.537,1.158C597.066,326.186,596.478,325.592,595.892,325.004z"/>
	<path fill-rule="evenodd" clip-rule="evenodd" fill="#F9F9F9" d="M315.373,375.494c-0.081-4.764-6.104-4.324-11.254-4.652
		c13.545-5.691,27.091-11.381,40.721-17.105c1.792,1.697-0.661,2.127-1.567,2.793c-7.563,5.52-15.211,11-22.911,16.453
		C318.961,373.977,318.208,375.51,315.373,375.494z"/>
	<path fill-rule="evenodd" clip-rule="evenodd" fill="#DBDBDB" d="M285.154,404.809c0.372-3.691,3.69-6.568,7.155-9.41
		c1.051,0.092,1.141,0.623,1.382,1.084c-2.27,2.83-4.114,5.803-7.488,8.268C285.852,404.768,285.503,404.789,285.154,404.809z"/>
	<path fill-rule="evenodd" clip-rule="evenodd" fill="#D7D7D7" d="M297.076,375.297c-0.667-0.309-1.333-0.619-1.995-0.93
		c2.4-0.688,3.689-3.158,7.439-1.68C301.053,373.82,299.581,374.947,297.076,375.297z"/>
	<path fill-rule="evenodd" clip-rule="evenodd" fill="#ABABAB" d="M285.154,404.809c0.332-0.139,0.68-0.158,1.049-0.059
		c-0.267,1.865-1.025,3.547-4.422,4.227C283.182,407.67,282.537,405.762,285.154,404.809z"/>
	<path fill-rule="evenodd" clip-rule="evenodd" fill="#A4A4A4" d="M295.542,393.377c-0.074-1.934,0.564-3.516,4.67-3.344
		C299.28,391.469,297.969,392.707,295.542,393.377z"/>
	<path fill-rule="evenodd" clip-rule="evenodd" fill="#FEFEFE" d="M293.691,396.482c-0.461-0.359-0.924-0.723-1.382-1.084
		c0.342-1.131,1.612-1.674,3.377-1.896C296.059,394.75,294.569,395.541,293.691,396.482z"/>
	<path fill-rule="evenodd" clip-rule="evenodd" fill="#E4E4E4" d="M637.683,324.221c-1.69-1.33-3.768-2.725-1.849-4.09
		c1.337-0.955,3.594,0.211,5.525,0.629C640.122,321.926,638.938,323.037,637.683,324.221z"/>
	<path fill-rule="evenodd" clip-rule="evenodd" fill="#EF6C33" d="M469.087,231.864c-0.498,4.476-2.777,8.985-6.513,13.191
		c-7.688,8.648-17.463,16.421-28.498,23.608c-4.132,2.692-8.955,4.901-15.017,6c-3.91,0.708-7.029,0.006-9.688-1.525
		c-2.601-1.496-1.284-3.137-0.441-5.002c2.653-5.853,4.508-11.836,6.91-17.727c2.908-7.119,7.095-13.98,12.21-20.631
		c1.379-1.792,2.925-3.555,4.711-5.209c6.752-6.259,14.052-8.662,21.436-7.187C462.745,219.089,469.224,225.249,469.087,231.864z"/>
	<path fill-rule="evenodd" clip-rule="evenodd" fill="#FDFDFD" d="M424.392,263.303c3.856-11.826,8.434-23.495,18.481-34.035
		c1.788-1.878,3.657-4.923,7.777-4.244c4.815,0.793,5.689,3.946,5.535,6.839c-0.129,2.468-1.171,4.817-2.815,7.058
		C446.548,248.209,435.824,255.839,424.392,263.303z"/>
</g>
<g>
	<g>
		<g>
			<path fill-rule="evenodd" clip-rule="evenodd" fill="#003366" d="M563.643,300.342c-1.688,1.91-2.617,4.117-3.604,6.463
				L563.643,300.342z"/>
			<path fill-rule="evenodd" clip-rule="evenodd" fill="#003366" d="M864.25,283.334c-2.138-14.296-7.696-28.939-15.051-41.46
				c-53.33-90.854-131.895-157.242-226.608-196.26C476.921-14.39,331.662-10.603,194.627,79.831
				c-63.015,41.58-118.021,90.426-160.568,152.461c-11.943,17.41-20.775,38.252-25.765,58.796
				c-6.115,25.174,6.861,44.627,30.288,55.223c23.148,10.475,44.525,7.602,61.921-12.615c6.581-7.645,13.295-15.166,24.297-27.709
				c56.515,156.184,152.903,252.502,321.808,253.213c171.044,0.721,262.934-99.154,311.607-255.834
				c8.739,10.33,13.607,14.998,17.201,20.51c14.049,21.539,34.38,27.748,56.571,18.096
				C856.272,331.406,868.222,309.949,864.25,283.334z M326.199,197.489c25.141-70.971,133.896-106.596,187.543-56.637
				c41.555,38.693,68.588,92.068,51.782,156.115l-1.882,3.375c0.694-0.789,1.52-1.527,2.531-2.201
				c-1.012,0.674-1.837,1.412-2.531,2.201l-3.604,6.463c-0.808,1.924-1.658,3.939-3.001,5.953c1.343-2.014,2.193-4.029,3.001-5.953
				l-3.354,6.02c-9.6,39.842-44.405,78.748-79.275,84.723c-67.769,11.594-126.676-16.398-150.285-69.219
				C307.479,284.387,311.114,240.067,326.199,197.489z M701.569,335.004c-27.182,49.061-59.943,99.477-102.299,134.771
				c-98.403,82-256.618,62.916-345.785-29.717c-42.177-43.814-77.492-90.354-91.107-150.102
				c-2.837-12.445-0.306-33.173,7.997-39.886c41.031-33.178,84.829-62.922,127.651-93.883c2.739,3.646,5.477,7.297,8.219,10.943
				c-36.31,115.314-21.138,191.083,48.391,241.681c54.661,39.779,127.59,39.709,182.513-0.178
				c68.394-49.666,84.905-130.173,44.963-251.169c34.341,19.492,61.973,32.645,86.856,49.793
				C735.59,253.178,741.014,263.827,701.569,335.004z"/>
		</g>
	</g>
	<path fill-rule="evenodd" clip-rule="evenodd" fill="#FFFFFF" d="M309.548,164.915c-35.847,113.845-20.869,188.648,47.773,238.599
		c53.964,39.273,125.962,39.203,180.186-0.176c67.52-49.031,83.821-128.51,44.387-247.966c33.904,19.243,61.186,32.229,85.75,49.158
		c65.771,45.336,71.126,55.846,32.185,126.119c-26.835,48.434-59.179,98.207-100.993,133.053
		c-97.148,80.955-253.345,62.113-341.375-29.338c-41.638-43.258-76.504-89.203-89.945-148.188
		c-2.8-12.286-0.302-32.751,7.895-39.378c40.508-32.756,83.747-62.121,126.023-92.688
		C304.137,157.709,306.841,161.315,309.548,164.915z"/>
</g>
</svg>
